<svg width="500" height="501" viewBox="0 0 500 501" fill="none" xmlns="http://www.w3.org/2000/svg">
<ellipse cx="250" cy="250.5" rx="250" ry="250.5" fill="url(#paint0_linear_15_10)"/>
<ellipse cx="250" cy="250.5" rx="240" ry="240.5" fill="url(#paint1_linear_15_10)"/>
<path fill-rule="evenodd" clip-rule="evenodd" d="M251.717 93.1403C207.711 94.1903 157.106 104.912 118.273 121.411C96.9433 130.474 72.0316 144.726 64.5454 152.149C56.9498 159.68 57.1906 168.129 65.061 170.25C70.7597 171.786 71.3688 171.642 110.974 159.509C134.135 152.413 135.161 152.116 143.471 150.082C188.62 139.033 232.994 135.269 261.338 140.085C296.129 145.996 316.337 165.185 320.968 196.709C323.756 215.692 321.34 249.398 315.311 275.588C306.329 314.607 290.936 343.1 267.723 363.679C249.791 379.577 225.104 388.879 200.847 388.879C191.508 388.879 185.171 388.576 183.256 388.037C182.612 387.856 182.103 387.853 180.436 388.021C167.713 389.3 155.637 389.668 146.106 389.066C142.063 388.81 141.765 388.84 141.529 389.517C140.792 391.628 144.004 395.782 151.862 402.884C155.048 405.764 158.924 408.148 163.888 410.278C164.663 410.611 166.893 411.719 168.844 412.74C186.738 422.109 206.29 427.133 232.476 429.093C280.761 432.705 320.383 423.938 355.068 401.964C394.493 376.988 425.058 333.498 435.899 286.95C444.632 249.449 441.689 206.023 428.284 174.571C403.564 116.58 347.769 90.8483 251.717 93.1403ZM199.107 166.128C186.876 167.553 177.364 174.534 171.367 186.485C165.797 197.584 161.742 216.762 158.665 246.561C154.697 284.98 151.216 294.139 140.783 293.621C133.963 293.283 129.219 289.259 124.418 279.739C116.313 263.669 114.244 245.763 117.201 217.284C119.87 191.595 119.659 189.793 113.789 188.184C105.698 185.966 78.1811 187.677 71.9112 190.787C66.0522 193.694 65.7954 197.965 70.4432 215.211C83.4638 263.527 108.94 314.394 135.285 344.681C161.022 374.268 184.256 382.322 208.685 370.125C227.045 360.959 235.823 339.347 241.928 288.277C245.166 261.201 246.319 254.596 249.141 246.988C252.286 238.509 254.989 236.377 263.981 235.281C271.545 234.359 273.278 233.226 273.49 229.062C273.846 222.06 260.587 201.993 246.636 188.421C229.242 171.5 214.071 164.384 199.107 166.128Z" fill="url(#paint2_linear_15_10)"/>
<defs>
<linearGradient id="paint0_linear_15_10" x1="52.5" y1="97.695" x2="423.121" y2="412.594" gradientUnits="userSpaceOnUse">
<stop stop-color="#21D4FD"/>
<stop offset="1" stop-color="#B721FF"/>
</linearGradient>
<linearGradient id="paint1_linear_15_10" x1="60.4" y1="103.795" x2="416.221" y2="406.094" gradientUnits="userSpaceOnUse">
<stop stop-color="white"/>
<stop offset="1" stop-color="#F2F2F2"/>
</linearGradient>
<linearGradient id="paint2_linear_15_10" x1="168.308" y1="130.709" x2="396.472" y2="429.995" gradientUnits="userSpaceOnUse">
<stop stop-color="#21D4FD"/>
<stop offset="1" stop-color="#B721FF"/>
</linearGradient>
</defs>
</svg>
